<svg width="68" height="68" viewBox="0 0 68 68" fill="none" xmlns="http://www.w3.org/2000/svg">
<rect width="68" height="68" rx="20" fill="#88B702"/>
<g clip-path="url(#clip0_199_19137)">
<path opacity="0.4" d="M56.1309 33.7437C56.1309 46.1084 46.1079 56.1314 33.7432 56.1314C21.3784 56.1314 11.3555 46.1084 11.3555 33.7437C11.3555 21.3812 21.3784 11.356 33.7432 11.356C46.1079 11.356 56.1309 21.3812 56.1309 33.7437Z" fill="white"/>
<path d="M42.3853 26.3668L38.7585 37.8293C38.6242 38.2994 38.2436 38.68 37.7734 38.8166L26.3557 42.3964C25.5945 42.6449 24.8557 41.9038 25.102 41.1427L28.684 29.6578C28.8184 29.1876 29.1989 28.8294 29.6691 28.6727L41.1316 25.0907C41.9152 24.8444 42.6316 25.5832 42.3853 26.3668Z" fill="white"/>
</g>
<defs>
<clipPath id="clip0_199_19137">
<rect width="46" height="46" fill="white" transform="translate(11 11)"/>
</clipPath>
</defs>
</svg>
