<svg width="68" height="68" viewBox="0 0 68 68" fill="none" xmlns="http://www.w3.org/2000/svg">
<rect width="68" height="68" rx="20" fill="#88B702"/>
<g clip-path="url(#clip0_199_19146)">
<path d="M31.2596 50.8179C41.7079 50.8179 50.1779 42.2947 50.1779 31.7808C50.1779 21.2669 41.7079 12.7437 31.2596 12.7437C20.8113 12.7437 12.3413 21.2669 12.3413 31.7808C12.3413 42.2947 20.8113 50.8179 31.2596 50.8179Z" fill="white"/>
<path opacity="0.4" d="M53.4256 56.6452C52.6907 56.6214 51.9919 56.3191 51.4692 55.7987L46.9891 50.562C46.0286 49.6836 45.95 48.1908 46.813 47.2152C47.2169 46.8065 47.7661 46.5767 48.339 46.5767C48.9118 46.5767 49.461 46.8065 49.865 47.2152L55.4994 51.7235C56.311 52.5542 56.5614 53.7874 56.1388 54.8719C55.7161 55.9564 54.6994 56.6896 53.543 56.7437L53.4256 56.6452Z" fill="white"/>
</g>
<defs>
<clipPath id="clip0_199_19146">
<rect width="45" height="45" fill="white" transform="translate(12 12)"/>
</clipPath>
</defs>
</svg>
